<svg width="200" height="58" viewBox="0 0 200 58" fill="none" xmlns="http://www.w3.org/2000/svg">
<path d="M81.515 16.0537C81.515 14.2994 80.0896 12.874 78.2988 12.874C76.581 12.874 75.1191 14.2994 75.1191 16.0537C75.1191 17.808 76.581 19.2333 78.2988 19.2333C80.0896 19.2333 81.515 17.808 81.515 16.0537ZM75.8135 39.0755C75.8135 39.8644 76.4531 40.504 77.2421 40.504H79.392C80.181 40.504 80.8206 39.8644 80.8206 39.0755V23.6588C80.8206 22.8698 80.181 22.2302 79.392 22.2302H77.2421C76.4531 22.2302 75.8135 22.8698 75.8135 23.6588V39.0755Z" fill="#5751FF"/>
<path d="M85.6286 39.0755C85.6286 39.8644 86.2682 40.504 87.0572 40.504H89.207C89.996 40.504 90.6356 39.8644 90.6356 39.0755V31.5864C90.6356 28.0778 92.1341 26.3966 94.2904 26.3966C96.2639 26.3966 97.1411 28.0413 97.1411 30.7458V39.0755C97.1411 39.8644 97.7807 40.504 98.5697 40.504H100.72C101.509 40.504 102.148 39.8644 102.148 39.0755V31.5864C102.148 28.0778 103.647 26.3966 105.803 26.3966C107.776 26.3966 108.654 28.0413 108.654 30.7458V39.0755C108.654 39.8644 109.293 40.504 110.082 40.504H112.232C113.021 40.504 113.661 39.8644 113.661 39.0755V29.9052C113.661 24.9713 111.175 21.8282 106.826 21.8282C105.275 21.8282 103.52 22.4364 102.258 23.6829C101.704 24.2301 100.625 24.2281 100.089 23.6628C98.9742 22.4867 97.4387 21.8282 95.4964 21.8282C93.267 21.8282 91.6224 22.8881 90.6356 24.3134V23.6588C90.6356 22.8698 89.996 22.2302 89.207 22.2302H87.0572C86.2682 22.2302 85.6286 22.8698 85.6286 23.6588V39.0755Z" fill="#5751FF"/>
<path d="M118.25 39.0755C118.25 39.8644 118.89 40.504 119.679 40.504H121.829C122.618 40.504 123.257 39.8644 123.257 39.0755V31.5864C123.257 28.0778 124.756 26.3966 126.912 26.3966C128.886 26.3966 129.763 28.0413 129.763 30.7458V39.0755C129.763 39.8644 130.402 40.504 131.191 40.504H133.341C134.13 40.504 134.77 39.8644 134.77 39.0755V31.5864C134.77 28.0778 136.268 26.3966 138.424 26.3966C140.398 26.3966 141.275 28.0413 141.275 30.7458V39.0755C141.275 39.8644 141.915 40.504 142.704 40.504H144.854C145.643 40.504 146.282 39.8644 146.282 39.0755V29.9052C146.282 24.9713 143.797 21.8282 139.448 21.8282C137.896 21.8282 136.142 22.4364 134.88 23.6829C134.325 24.2301 133.246 24.2281 132.71 23.6628C131.596 22.4867 130.06 21.8282 128.118 21.8282C125.889 21.8282 124.244 22.8881 123.257 24.3134V23.6588C123.257 22.8698 122.618 22.2302 121.829 22.2302H119.679C118.89 22.2302 118.25 22.8698 118.25 23.6588V39.0755Z" fill="#5751FF"/>
<path d="M150.653 32.829C150.653 37.6899 153.101 40.906 157.523 40.906C159.863 40.906 161.58 39.8827 162.53 38.4208V39.0755C162.53 39.8644 163.17 40.504 163.959 40.504H166.109C166.898 40.504 167.538 39.8644 167.538 39.0755V23.6588C167.538 22.8698 166.898 22.2302 166.109 22.2302H163.959C163.17 22.2302 162.53 22.8698 162.53 23.6588V31.1478C162.53 34.693 160.995 36.3376 158.766 36.3376C156.61 36.3376 155.66 34.7295 155.66 31.9884V23.6588C155.66 22.8698 155.02 22.2302 154.231 22.2302H152.081C151.292 22.2302 150.653 22.8698 150.653 23.6588V32.829Z" fill="#5751FF"/>
<path d="M172.358 39.0755C172.358 39.8644 172.997 40.504 173.786 40.504H175.936C176.725 40.504 177.365 39.8644 177.365 39.0755V31.5864C177.365 28.0778 179.119 26.3966 181.422 26.3966C183.505 26.3966 184.638 28.0047 184.638 30.6362V39.0755C184.638 39.8644 185.277 40.504 186.066 40.504H188.216C189.005 40.504 189.645 39.8644 189.645 39.0755V29.7956C189.645 25.0444 187.013 21.8282 182.591 21.8282C180.216 21.8282 178.315 22.8515 177.365 24.3134V23.6588C177.365 22.8698 176.725 22.2302 175.936 22.2302H173.786C172.997 22.2302 172.358 22.8698 172.358 23.6588V39.0755Z" fill="#5751FF"/>
<path d="M199.938 16.0537C199.938 14.2994 198.512 12.874 196.722 12.874C195.004 12.874 193.542 14.2994 193.542 16.0537C193.542 17.808 195.004 19.2333 196.722 19.2333C198.512 19.2333 199.938 17.808 199.938 16.0537ZM194.236 39.0755C194.236 39.8644 194.876 40.504 195.665 40.504H197.815C198.604 40.504 199.243 39.8644 199.243 39.0755V23.6588C199.243 22.8698 198.604 22.2302 197.815 22.2302H195.665C194.876 22.2302 194.236 22.8698 194.236 23.6588V39.0755Z" fill="#5751FF"/>
<path fill-rule="evenodd" clip-rule="evenodd" d="M57.1429 29C57.1429 44.7796 44.351 57.5714 28.5714 57.5714C12.7919 57.5714 0 44.7796 0 29C0 13.2204 12.7919 0.428558 28.5714 0.428558C44.351 0.428558 57.1429 13.2204 57.1429 29ZM28.5714 52.8095C41.7211 52.8095 52.381 42.1496 52.381 29C52.381 15.8504 41.7211 5.19046 28.5714 5.19046C15.4218 5.19046 4.7619 15.8504 4.7619 29C4.7619 42.1496 15.4218 52.8095 28.5714 52.8095Z" fill="#5751FF"/>
<path d="M28.5723 20.1802C26.6282 20.1802 24.875 18.9967 24.1313 17.1818C23.3863 15.3669 23.7973 13.2783 25.1734 11.8895C26.548 10.5007 28.6153 10.0839 30.4116 10.8367C32.208 11.5878 33.3793 13.3592 33.3793 15.3236C33.3778 18.0063 31.226 20.1786 28.5723 20.1802ZM18.4297 41.4191C18.4297 41.4191 20.999 36.4879 22.6812 32.6343C25.1065 27.0786 17.0318 27.7795 15.5529 24.2177C14.5329 21.766 17.0342 19.1466 19.5597 20.1167L24.5761 22.2068C26.858 23.0272 30.4436 23.0085 32.642 22.1679L37.5571 20.1338C40.0879 19.1291 42.6375 21.77 41.5761 24.2332C40.0471 27.7975 32.2101 27.0157 34.4631 32.6219L38.8477 41.7058C39.7714 43.647 39.1191 45.2616 37.6267 46.0025C36.1343 46.7433 34.2367 46.113 33.2701 44.2284L29.3958 36.7432C29.268 36.3949 28.9386 36.1647 28.5723 36.1647C28.2059 36.1647 27.8765 36.3949 27.7488 36.7432L27.6903 36.8785L23.8844 44.2597C23.0124 46.112 21.1692 46.6915 19.7243 46.058C17.9434 45.277 17.3698 43.6882 18.4297 41.4191Z" fill="#5751FF"/>
</svg>
