<svg width="224" height="80" viewBox="0 0 224 80" fill="none" xmlns="http://www.w3.org/2000/svg">
<g clip-path="url(#clip0)">
<path d="M98.9252 27.0036C98.9252 25.1771 97.4412 23.6931 95.5766 23.6931C93.7882 23.6931 92.2661 25.1771 92.2661 27.0036C92.2661 28.8301 93.7882 30.3141 95.5766 30.3141C97.4412 30.3141 98.9252 28.8301 98.9252 27.0036ZM92.9891 50.9729C92.9891 51.7944 93.655 52.4603 94.4765 52.4603H96.7148C97.5363 52.4603 98.2022 51.7944 98.2022 50.9729V34.9218C98.2022 34.1003 97.5363 33.4344 96.7148 33.4344H94.4765C93.655 33.4344 92.9891 34.1003 92.9891 34.9218V50.9729Z" fill="#5751FF"/>
<path d="M103.208 50.9729C103.208 51.7944 103.874 52.4603 104.695 52.4603H106.934C107.755 52.4603 108.421 51.7944 108.421 50.9729V43.1757C108.421 39.5227 109.981 37.7723 112.226 37.7723C114.281 37.7723 115.194 39.4846 115.194 42.3005V50.9729C115.194 51.7944 115.86 52.4603 116.682 52.4603H118.92C119.742 52.4603 120.408 51.7944 120.408 50.9729V43.1757C120.408 39.5227 121.968 37.7723 124.213 37.7723C126.268 37.7723 127.181 39.4846 127.181 42.3005V50.9729C127.181 51.7944 127.847 52.4603 128.668 52.4603H130.906C131.728 52.4603 132.394 51.7944 132.394 50.9729V41.4253C132.394 36.2883 129.806 33.0158 125.278 33.0158C123.663 33.0158 121.836 33.649 120.522 34.9469C119.945 35.5166 118.821 35.5145 118.264 34.926C117.103 33.7015 115.504 33.0158 113.482 33.0158C111.161 33.0158 109.449 34.1193 108.421 35.6033V34.9218C108.421 34.1003 107.755 33.4344 106.934 33.4344H104.695C103.874 33.4344 103.208 34.1003 103.208 34.9218V50.9729Z" fill="#5751FF"/>
<path d="M137.172 50.9729C137.172 51.7944 137.838 52.4603 138.66 52.4603H140.898C141.72 52.4603 142.385 51.7944 142.385 50.9729V43.1757C142.385 39.5227 143.946 37.7723 146.191 37.7723C148.245 37.7723 149.159 39.4846 149.159 42.3005V50.9729C149.159 51.7944 149.825 52.4603 150.646 52.4603H152.884C153.706 52.4603 154.372 51.7944 154.372 50.9729V43.1757C154.372 39.5227 155.932 37.7723 158.177 37.7723C160.232 37.7723 161.145 39.4846 161.145 42.3005V50.9729C161.145 51.7944 161.811 52.4603 162.632 52.4603H164.871C165.692 52.4603 166.358 51.7944 166.358 50.9729V41.4253C166.358 36.2883 163.771 33.0158 159.242 33.0158C157.627 33.0158 155.801 33.649 154.486 34.9469C153.909 35.5166 152.786 35.5145 152.228 34.926C151.067 33.7015 149.469 33.0158 147.446 33.0158C145.125 33.0158 143.413 34.1193 142.385 35.6033V34.9218C142.385 34.1003 141.72 33.4344 140.898 33.4344H138.66C137.838 33.4344 137.172 34.1003 137.172 34.9218V50.9729Z" fill="#5751FF"/>
<path d="M170.908 44.4694C170.908 49.5303 173.458 52.8789 178.062 52.8789C180.497 52.8789 182.286 51.8134 183.275 50.2913V50.9729C183.275 51.7944 183.941 52.4603 184.762 52.4603H187.001C187.822 52.4603 188.488 51.7944 188.488 50.9729V34.9218C188.488 34.1003 187.822 33.4344 187.001 33.4344H184.762C183.941 33.4344 183.275 34.1003 183.275 34.9218V42.719C183.275 46.4101 181.677 48.1224 179.356 48.1224C177.111 48.1224 176.121 46.4481 176.121 43.5942V34.9218C176.121 34.1003 175.455 33.4344 174.634 33.4344H172.396C171.574 33.4344 170.908 34.1003 170.908 34.9218V44.4694Z" fill="#5751FF"/>
<path d="M193.507 50.9729C193.507 51.7944 194.173 52.4603 194.994 52.4603H197.233C198.054 52.4603 198.72 51.7944 198.72 50.9729V43.1757C198.72 39.5227 200.547 37.7723 202.944 37.7723C205.113 37.7723 206.292 39.4466 206.292 42.1863V50.9729C206.292 51.7944 206.958 52.4603 207.78 52.4603H210.018C210.84 52.4603 211.505 51.7944 211.505 50.9729V41.3111C211.505 36.3644 208.766 33.0158 204.161 33.0158C201.688 33.0158 199.709 34.0813 198.72 35.6033V34.9218C198.72 34.1003 198.054 33.4344 197.233 33.4344H194.994C194.173 33.4344 193.507 34.1003 193.507 34.9218V50.9729Z" fill="#5751FF"/>
<path d="M222.222 27.0036C222.222 25.1771 220.738 23.6931 218.874 23.6931C217.085 23.6931 215.563 25.1771 215.563 27.0036C215.563 28.8301 217.085 30.3141 218.874 30.3141C220.738 30.3141 222.222 28.8301 222.222 27.0036ZM216.286 50.9729C216.286 51.7944 216.952 52.4603 217.773 52.4603H220.012C220.833 52.4603 221.499 51.7944 221.499 50.9729V34.9218C221.499 34.1003 220.833 33.4344 220.012 33.4344H217.773C216.952 33.4344 216.286 34.1003 216.286 34.9218V50.9729Z" fill="#5751FF"/>
<circle cx="40" cy="40" r="40" fill="url(#paint0_radial)" fill-opacity="0.1"/>
<circle cx="40" cy="40" r="39.8201" stroke="#5751FF" stroke-opacity="0.02" stroke-width="0.35972" stroke-linecap="round" stroke-linejoin="round"/>
<circle cx="40.0061" cy="40" r="34.6033" fill="url(#paint1_radial)" fill-opacity="0.2"/>
<circle cx="40.0061" cy="40" r="34.427" stroke="#5751FF" stroke-opacity="0.04" stroke-width="0.352526" stroke-linecap="round" stroke-linejoin="round"/>
<path fill-rule="evenodd" clip-rule="evenodd" d="M66.8099 61.8942C60.4643 69.656 50.814 74.6106 40.0065 74.6106C29.1915 74.6106 19.5353 69.6491 13.1899 61.8782C19.0427 70.4189 28.8697 76.022 40.0054 76.022C51.1341 76.022 60.9558 70.4259 66.8099 61.8942Z" fill="white" fill-opacity="0.5"/>
<circle cx="40.0063" cy="39.9997" r="28.4504" fill="#5751FF"/>
<circle cx="40.0063" cy="39.9997" r="28.4504" fill="url(#paint2_radial)"/>
<path fill-rule="evenodd" clip-rule="evenodd" d="M15.8293 27.985C22.0557 19.3546 32.1986 13.7371 43.6536 13.7371C44.7335 13.7371 45.8017 13.787 46.8561 13.8847C44.6686 13.3125 42.3729 13.0078 40.0061 13.0078C29.4155 13.0078 20.2495 19.1073 15.8293 27.985Z" fill="url(#paint3_linear)" fill-opacity="0.5"/>
<path d="M40.0067 32.6898C43.4628 32.6898 46.2645 29.8881 46.2645 26.432C46.2645 22.976 43.4628 20.1743 40.0067 20.1743C36.5507 20.1743 33.749 22.976 33.749 26.432C33.749 29.8881 36.5507 32.6898 40.0067 32.6898Z" fill="black" fill-opacity="0.45"/>
<g filter="url(#filter0_dd)">
<path d="M40.0067 32.296C43.4628 32.296 46.2645 29.4943 46.2645 26.0382C46.2645 22.5822 43.4628 19.7805 40.0067 19.7805C36.5507 19.7805 33.749 22.5822 33.749 26.0382C33.749 29.4943 36.5507 32.296 40.0067 32.296Z" fill="url(#paint4_radial)"/>
</g>
<path d="M52.6477 35.096C50.8197 32.9936 47.6335 32.7711 45.5311 34.5991L32.3188 46.087L45.5308 57.5744C47.6331 59.4024 50.8193 59.1799 52.6473 57.0775C54.4753 54.9752 54.2528 51.789 52.1504 49.961L47.6948 46.0869L52.1508 42.2125C54.2532 40.3845 54.4756 37.1983 52.6477 35.096Z" fill="black" fill-opacity="0.45"/>
<g filter="url(#filter1_dd)">
<path d="M52.6477 34.6892C50.8197 32.5868 47.6335 32.3644 45.5311 34.1924L32.3188 45.6802L45.5308 57.1677C47.6331 58.9956 50.8193 58.7732 52.6473 56.6708C54.4753 54.5684 54.2528 51.3822 52.1504 49.5543L47.6948 45.6802L52.1508 41.8058C54.2532 39.9778 54.4756 36.7916 52.6477 34.6892Z" fill="#B8BCFF"/>
</g>
<path d="M27.3662 35.0833C29.1942 32.9809 32.3804 32.7584 34.4828 34.5864L41.4966 40.2904L47.695 45.6813L47.9211 45.8767L34.4831 57.5617C32.3807 59.3897 29.1945 59.1672 27.3666 57.0648C25.5386 54.9625 25.761 51.7763 27.8634 49.9483L32.3191 46.0742L27.863 42.1998C25.7607 40.3718 25.5382 37.1856 27.3662 35.0833Z" fill="black" fill-opacity="0.45"/>
<g filter="url(#filter2_dd)">
<path d="M27.3662 34.6892C29.1942 32.5868 32.3804 32.3644 34.4828 34.1924L47.695 45.6802L34.4831 57.1677C32.3807 58.9956 29.1945 58.7732 27.3666 56.6708C25.5386 54.5684 25.761 51.3822 27.8634 49.5543L32.3191 45.6802L27.863 41.8058C25.7607 39.9778 25.5382 36.7916 27.3662 34.6892Z" fill="url(#paint5_radial)"/>
</g>
</g>
<defs>
<filter id="filter0_dd" x="31.2973" y="18.1461" width="17.4188" height="19.8705" filterUnits="userSpaceOnUse" color-interpolation-filters="sRGB">
<feFlood flood-opacity="0" result="BackgroundImageFix"/>
<feColorMatrix in="SourceAlpha" type="matrix" values="0 0 0 0 0 0 0 0 0 0 0 0 0 0 0 0 0 0 127 0"/>
<feOffset dy="3.26892"/>
<feGaussianBlur stdDeviation="1.22584"/>
<feColorMatrix type="matrix" values="0 0 0 0 0.0235294 0 0 0 0 0 0 0 0 0 0.682353 0 0 0 0.1 0"/>
<feBlend mode="normal" in2="BackgroundImageFix" result="effect1_dropShadow"/>
<feColorMatrix in="SourceAlpha" type="matrix" values="0 0 0 0 0 0 0 0 0 0 0 0 0 0 0 0 0 0 127 0"/>
<feOffset dy="0.81723"/>
<feGaussianBlur stdDeviation="1.22584"/>
<feColorMatrix type="matrix" values="0 0 0 0 0.0235294 0 0 0 0 0 0 0 0 0 0.682353 0 0 0 0.2 0"/>
<feBlend mode="normal" in2="effect1_dropShadow" result="effect2_dropShadow"/>
<feBlend mode="normal" in="SourceGraphic" in2="effect2_dropShadow" result="shape"/>
</filter>
<filter id="filter1_dd" x="29.8672" y="31.3201" width="26.47" height="32.8059" filterUnits="userSpaceOnUse" color-interpolation-filters="sRGB">
<feFlood flood-opacity="0" result="BackgroundImageFix"/>
<feColorMatrix in="SourceAlpha" type="matrix" values="0 0 0 0 0 0 0 0 0 0 0 0 0 0 0 0 0 0 127 0"/>
<feOffset dy="3.26892"/>
<feGaussianBlur stdDeviation="1.22584"/>
<feColorMatrix type="matrix" values="0 0 0 0 0.0235294 0 0 0 0 0 0 0 0 0 0.682353 0 0 0 0.1 0"/>
<feBlend mode="normal" in2="BackgroundImageFix" result="effect1_dropShadow"/>
<feColorMatrix in="SourceAlpha" type="matrix" values="0 0 0 0 0 0 0 0 0 0 0 0 0 0 0 0 0 0 127 0"/>
<feOffset dy="0.81723"/>
<feGaussianBlur stdDeviation="1.22584"/>
<feColorMatrix type="matrix" values="0 0 0 0 0.0235294 0 0 0 0 0 0 0 0 0 0.682353 0 0 0 0.2 0"/>
<feBlend mode="normal" in2="effect1_dropShadow" result="effect2_dropShadow"/>
<feBlend mode="normal" in="SourceGraphic" in2="effect2_dropShadow" result="shape"/>
</filter>
<filter id="filter2_dd" x="23.6767" y="31.3201" width="26.47" height="32.8059" filterUnits="userSpaceOnUse" color-interpolation-filters="sRGB">
<feFlood flood-opacity="0" result="BackgroundImageFix"/>
<feColorMatrix in="SourceAlpha" type="matrix" values="0 0 0 0 0 0 0 0 0 0 0 0 0 0 0 0 0 0 127 0"/>
<feOffset dy="3.26892"/>
<feGaussianBlur stdDeviation="1.22584"/>
<feColorMatrix type="matrix" values="0 0 0 0 0.0235294 0 0 0 0 0 0 0 0 0 0.682353 0 0 0 0.1 0"/>
<feBlend mode="normal" in2="BackgroundImageFix" result="effect1_dropShadow"/>
<feColorMatrix in="SourceAlpha" type="matrix" values="0 0 0 0 0 0 0 0 0 0 0 0 0 0 0 0 0 0 127 0"/>
<feOffset dy="0.81723"/>
<feGaussianBlur stdDeviation="1.22584"/>
<feColorMatrix type="matrix" values="0 0 0 0 0.0235294 0 0 0 0 0 0 0 0 0 0.682353 0 0 0 0.2 0"/>
<feBlend mode="normal" in2="effect1_dropShadow" result="effect2_dropShadow"/>
<feBlend mode="normal" in="SourceGraphic" in2="effect2_dropShadow" result="shape"/>
</filter>
<radialGradient id="paint0_radial" cx="0" cy="0" r="1" gradientUnits="userSpaceOnUse" gradientTransform="translate(40 40) rotate(90) scale(40)">
<stop offset="0.869648" stop-color="#5751FF" stop-opacity="0.6"/>
<stop offset="1" stop-color="#5751FF" stop-opacity="0.833333"/>
</radialGradient>
<radialGradient id="paint1_radial" cx="0" cy="0" r="1" gradientUnits="userSpaceOnUse" gradientTransform="translate(40.0061 40) rotate(90) scale(34.6033)">
<stop offset="0.811269" stop-color="#5751FF" stop-opacity="0.4"/>
<stop offset="1" stop-color="#5751FF" stop-opacity="0.833333"/>
</radialGradient>
<radialGradient id="paint2_radial" cx="0" cy="0" r="1" gradientUnits="userSpaceOnUse" gradientTransform="translate(40.0062 36.3522) rotate(90) scale(32.0979)">
<stop offset="0.0001" stop-color="white" stop-opacity="0.2"/>
<stop offset="0.804334" stop-color="#5751FF" stop-opacity="0.15"/>
<stop offset="1" stop-color="#241DD6"/>
</radialGradient>
<linearGradient id="paint3_linear" x1="46.935" y1="14.4667" x2="15.9329" y2="28.3264" gradientUnits="userSpaceOnUse">
<stop stop-color="white" stop-opacity="0"/>
<stop offset="0.510417" stop-color="white"/>
<stop offset="1" stop-color="white" stop-opacity="0"/>
</linearGradient>
<radialGradient id="paint4_radial" cx="0" cy="0" r="1" gradientUnits="userSpaceOnUse" gradientTransform="translate(43.9484 23.27) rotate(159.728) scale(13.1967 11.0673)">
<stop stop-color="white"/>
<stop offset="0.502954" stop-color="white"/>
<stop offset="1" stop-color="#E9EFFF"/>
</radialGradient>
<radialGradient id="paint5_radial" cx="0" cy="0" r="1" gradientUnits="userSpaceOnUse" gradientTransform="translate(43.7039 40.0507) rotate(156.448) scale(23.2703 21.9936)">
<stop stop-color="white"/>
<stop offset="0.502954" stop-color="white"/>
<stop offset="1" stop-color="#E9EFFF"/>
</radialGradient>
<clipPath id="clip0">
<rect width="222.222" height="80" fill="white"/>
</clipPath>
</defs>
</svg>
