<svg width="150" height="54" viewBox="0 0 150 54" fill="none" xmlns="http://www.w3.org/2000/svg">
<g clip-path="url(#clip0)">
<path d="M66.7747 18.2275C66.7747 16.9946 65.7729 15.9929 64.5144 15.9929C63.3072 15.9929 62.2798 16.9946 62.2798 18.2275C62.2798 19.4604 63.3072 20.4621 64.5144 20.4621C65.7729 20.4621 66.7747 19.4604 66.7747 18.2275ZM62.7678 34.4068C62.7678 34.9613 63.2173 35.4108 63.7718 35.4108H65.2827C65.8371 35.4108 66.2866 34.9613 66.2866 34.4068V23.5723C66.2866 23.0178 65.8371 22.5683 65.2827 22.5683H63.7718C63.2173 22.5683 62.7678 23.0178 62.7678 23.5723V34.4068Z" fill="white"/>
<path d="M69.6656 34.4068C69.6656 34.9613 70.1151 35.4108 70.6696 35.4108H72.1805C72.735 35.4108 73.1845 34.9613 73.1845 34.4068V29.1436C73.1845 26.6779 74.2376 25.4964 75.753 25.4964C77.14 25.4964 77.7564 26.6522 77.7564 28.5529V34.4068C77.7564 34.9613 78.2059 35.4108 78.7604 35.4108H80.2713C80.8257 35.4108 81.2752 34.9613 81.2752 34.4068V29.1436C81.2752 26.6779 82.3283 25.4964 83.8437 25.4964C85.2307 25.4964 85.8472 26.6522 85.8472 28.5529V34.4068C85.8472 34.9613 86.2967 35.4108 86.8511 35.4108H88.362C88.9165 35.4108 89.366 34.9613 89.366 34.4068V27.9621C89.366 24.4947 87.6194 22.2857 84.5629 22.2857C83.4725 22.2857 82.2397 22.7132 81.3525 23.5892C80.963 23.9738 80.2046 23.9724 79.828 23.5751C79.0447 22.7486 77.9656 22.2857 76.6006 22.2857C75.0338 22.2857 73.878 23.0306 73.1845 24.0323V23.5723C73.1845 23.0178 72.735 22.5683 72.1805 22.5683H70.6696C70.1151 22.5683 69.6656 23.0178 69.6656 23.5723V34.4068Z" fill="white"/>
<path d="M92.5915 34.4068C92.5915 34.9613 93.041 35.4108 93.5955 35.4108H95.1064C95.6608 35.4108 96.1103 34.9613 96.1103 34.4068V29.1436C96.1103 26.6779 97.1634 25.4964 98.6788 25.4964C100.066 25.4964 100.682 26.6522 100.682 28.5529V34.4068C100.682 34.9613 101.132 35.4108 101.686 35.4108H103.197C103.752 35.4108 104.201 34.9613 104.201 34.4068V29.1436C104.201 26.6779 105.254 25.4964 106.77 25.4964C108.157 25.4964 108.773 26.6522 108.773 28.5529V34.4068C108.773 34.9613 109.223 35.4108 109.777 35.4108H111.288C111.842 35.4108 112.292 34.9613 112.292 34.4068V27.9621C112.292 24.4947 110.545 22.2857 107.489 22.2857C106.398 22.2857 105.166 22.7132 104.278 23.5892C103.889 23.9738 103.13 23.9724 102.754 23.5751C101.971 22.7486 100.891 22.2857 99.5264 22.2857C97.9597 22.2857 96.8038 23.0306 96.1103 24.0323V23.5723C96.1103 23.0178 95.6608 22.5683 95.1064 22.5683H93.5955C93.041 22.5683 92.5915 23.0178 92.5915 23.5723V34.4068Z" fill="white"/>
<path d="M115.363 30.0169C115.363 33.433 117.084 35.6933 120.192 35.6933C121.836 35.6933 123.043 34.9741 123.711 33.9467V34.4068C123.711 34.9613 124.16 35.4108 124.715 35.4108H126.226C126.78 35.4108 127.23 34.9613 127.23 34.4068V23.5723C127.23 23.0178 126.78 22.5683 126.226 22.5683H124.715C124.16 22.5683 123.711 23.0178 123.711 23.5723V28.8354C123.711 31.3269 122.632 32.4827 121.065 32.4827C119.55 32.4827 118.882 31.3525 118.882 29.4262V23.5723C118.882 23.0178 118.433 22.5683 117.878 22.5683H116.367C115.813 22.5683 115.363 23.0178 115.363 23.5723V30.0169Z" fill="white"/>
<path d="M130.617 34.4068C130.617 34.9613 131.067 35.4108 131.621 35.4108H133.132C133.687 35.4108 134.136 34.9613 134.136 34.4068V29.1436C134.136 26.6779 135.369 25.4964 136.987 25.4964C138.451 25.4964 139.247 26.6265 139.247 28.4758V34.4068C139.247 34.9613 139.697 35.4108 140.251 35.4108H141.762C142.317 35.4108 142.766 34.9613 142.766 34.4068V27.8851C142.766 24.546 140.917 22.2857 137.809 22.2857C136.14 22.2857 134.804 23.0049 134.136 24.0323V23.5723C134.136 23.0178 133.687 22.5683 133.132 22.5683H131.621C131.067 22.5683 130.617 23.0178 130.617 23.5723V34.4068Z" fill="white"/>
<path d="M150 18.2275C150 16.9946 148.998 15.9929 147.74 15.9929C146.533 15.9929 145.505 16.9946 145.505 18.2275C145.505 19.4604 146.533 20.4621 147.74 20.4621C148.998 20.4621 150 19.4604 150 18.2275ZM145.993 34.4068C145.993 34.9613 146.443 35.4108 146.997 35.4108H148.508C149.063 35.4108 149.512 34.9613 149.512 34.4068V23.5723C149.512 23.0178 149.063 22.5683 148.508 22.5683H146.997C146.443 22.5683 145.993 23.0178 145.993 23.5723V34.4068Z" fill="white"/>
<circle cx="26.8743" cy="26.9294" r="26.9146" fill="white" fill-opacity="0.1"/>
<circle cx="26.8743" cy="26.9294" r="26.7933" stroke="#5751FF" stroke-opacity="0.02" stroke-width="0.242433" stroke-linecap="round" stroke-linejoin="round"/>
<circle cx="26.8785" cy="26.9293" r="23.2833" fill="white" fill-opacity="0.2"/>
<circle cx="26.8785" cy="26.9293" r="23.1645" stroke="white" stroke-opacity="0.04" stroke-width="0.237585" stroke-linecap="round" stroke-linejoin="round"/>
<circle cx="26.8783" cy="27.2658" r="19.1432" fill="black" fill-opacity="0.4"/>
<circle cx="26.8783" cy="26.9291" r="19.1432" fill="url(#paint0_linear)"/>
<circle cx="26.8783" cy="26.9291" r="19.1432" fill="white"/>
<path fill-rule="evenodd" clip-rule="evenodd" d="M10.6106 18.8452C14.8001 13.038 21.625 9.25809 29.3327 9.25809C30.0594 9.25809 30.7783 9.29169 31.4879 9.35743C30.0159 8.97235 28.4711 8.76733 26.8784 8.76733C19.7522 8.76733 13.5847 12.8716 10.6106 18.8452Z" fill="url(#paint1_linear)" fill-opacity="0.5"/>
<path d="M26.8786 21.7454C29.204 21.7454 31.0892 19.8603 31.0892 17.5348C31.0892 15.2094 29.204 13.3242 26.8786 13.3242C24.5531 13.3242 22.668 15.2094 22.668 17.5348C22.668 19.8603 24.5531 21.7454 26.8786 21.7454Z" fill="#5751FF"/>
<path d="M35.3838 23.3559C34.1539 21.9413 32.01 21.7916 30.5954 23.0216L21.7053 30.7513L30.5951 38.4808C32.0098 39.7108 34.1536 39.5611 35.3836 38.1465C36.6136 36.7319 36.4639 34.588 35.0493 33.358L32.0513 30.7513L35.0495 28.1444C36.4642 26.9144 36.6138 24.7705 35.3838 23.3559Z" fill="#B8BCFF"/>
<path d="M18.3729 23.3559C19.6029 21.9413 21.7468 21.7916 23.1614 23.0216L32.0514 30.7513L23.1616 38.4808C21.747 39.7108 19.6031 39.5611 18.3731 38.1465C17.1432 36.7319 17.2928 34.588 18.7075 33.358L21.7055 30.7513L18.7072 28.1444C17.2926 26.9144 17.1429 24.7705 18.3729 23.3559Z" fill="#5751FF"/>
</g>
<defs>
<linearGradient id="paint0_linear" x1="13.4189" y1="13.4697" x2="40.5927" y2="40.6435" gradientUnits="userSpaceOnUse">
<stop stop-color="white"/>
<stop offset="1" stop-color="#E6E6FF"/>
</linearGradient>
<linearGradient id="paint1_linear" x1="31.5409" y1="9.74902" x2="10.6803" y2="19.0749" gradientUnits="userSpaceOnUse">
<stop stop-color="white" stop-opacity="0"/>
<stop offset="0.510417" stop-color="white"/>
<stop offset="1" stop-color="white" stop-opacity="0"/>
</linearGradient>
<clipPath id="clip0">
<path d="M0 0H150V54H0V0Z" fill="white"/>
</clipPath>
</defs>
</svg>
