<svg width="162" height="48" viewBox="0 0 162 48" fill="none" xmlns="http://www.w3.org/2000/svg">
<rect x="0.5" y="0.5" width="161" height="47" rx="8.5" fill="white" stroke="#C6C7D2"/>
<path d="M36.1536 23.7408C36.1188 19.8732 39.3204 17.9916 39.4668 17.904C37.6536 15.2604 34.8432 14.8992 33.8556 14.8704C31.4952 14.622 29.2056 16.2828 28.0032 16.2828C26.7768 16.2828 24.9252 14.8944 22.9296 14.9352C20.3616 14.9748 17.9592 16.4616 16.6416 18.7704C13.9224 23.478 15.9504 30.396 18.5556 34.2012C19.8588 36.0648 21.3816 38.1456 23.3748 38.0724C25.3248 37.992 26.0532 36.8292 28.4064 36.8292C30.738 36.8292 31.422 38.0724 33.4548 38.0256C35.5476 37.992 36.8652 36.1536 38.1228 34.2732C39.6288 32.1372 40.2336 30.0336 40.2576 29.9256C40.2084 29.9088 36.1932 28.3764 36.1536 23.7408Z" fill="#2B2733"/>
<path d="M32.3136 12.3672C33.3624 11.0556 34.08 9.2712 33.8808 7.4604C32.3628 7.5276 30.4644 8.5104 29.3712 9.7932C28.404 10.9236 27.54 12.7764 27.7632 14.5188C29.4684 14.646 31.2192 13.6584 32.3136 12.3672Z" fill="#2B2733"/>
<path d="M64.374 37.8048H61.6488L60.156 33.114H54.9672L53.5452 37.8048H50.892L56.0328 21.8352H59.208L64.374 37.8048ZM59.706 31.146L58.356 26.976C58.2132 26.55 57.9456 25.5468 57.5508 23.9676H57.5028C57.3456 24.6468 57.0924 25.65 56.7444 26.976L55.4184 31.146H59.706V31.146Z" fill="#2B2733"/>
<path d="M77.5944 31.9056C77.5944 33.864 77.0652 35.412 76.0068 36.5484C75.0588 37.56 73.8816 38.0652 72.4764 38.0652C70.9596 38.0652 69.87 37.5204 69.2064 36.4308H69.1584V42.4968H66.6V30.0804C66.6 28.8492 66.5676 27.5856 66.5052 26.2896H68.7552L68.898 28.1148H68.946C69.7992 26.7396 71.094 26.0532 72.8316 26.0532C74.19 26.0532 75.324 26.5896 76.2312 27.6636C77.1408 28.7388 77.5944 30.1524 77.5944 31.9056ZM74.988 31.9992C74.988 30.8784 74.736 29.9544 74.2296 29.2272C73.6764 28.4688 72.9336 28.0896 72.0024 28.0896C71.3712 28.0896 70.7976 28.3008 70.2852 28.7172C69.7716 29.1372 69.4356 29.6856 69.2784 30.3648C69.1992 30.6816 69.1596 30.9408 69.1596 31.1448V33.0648C69.1596 33.9024 69.4164 34.6092 69.93 35.1864C70.4436 35.7636 71.1108 36.0516 71.9316 36.0516C72.8952 36.0516 73.6452 35.6796 74.1816 34.938C74.7192 34.1952 74.988 33.216 74.988 31.9992Z" fill="#2B2733"/>
<path d="M90.8388 31.9056C90.8388 33.864 90.3096 35.412 89.25 36.5484C88.3032 37.56 87.126 38.0652 85.7208 38.0652C84.204 38.0652 83.1144 37.5204 82.452 36.4308H82.404V42.4968H79.8456V30.0804C79.8456 28.8492 79.8132 27.5856 79.7508 26.2896H82.0008L82.1436 28.1148H82.1916C83.0436 26.7396 84.3384 26.0532 86.0772 26.0532C87.4344 26.0532 88.5684 26.5896 89.478 27.6636C90.384 28.7388 90.8388 30.1524 90.8388 31.9056ZM88.2324 31.9992C88.2324 30.8784 87.9792 29.9544 87.4728 29.2272C86.9196 28.4688 86.1792 28.0896 85.2468 28.0896C84.6144 28.0896 84.042 28.3008 83.5284 28.7172C83.0148 29.1372 82.68 29.6856 82.5228 30.3648C82.4448 30.6816 82.404 30.9408 82.404 31.1448V33.0648C82.404 33.9024 82.6608 34.6092 83.172 35.1864C83.6856 35.7624 84.3528 36.0516 85.176 36.0516C86.1396 36.0516 86.8896 35.6796 87.426 34.938C87.9636 34.1952 88.2324 33.216 88.2324 31.9992Z" fill="#2B2733"/>
<path d="M105.647 33.3264C105.647 34.6848 105.175 35.79 104.228 36.6432C103.188 37.5756 101.74 38.0412 99.8784 38.0412C98.16 38.0412 96.7824 37.71 95.7396 37.0464L96.3324 34.914C97.4556 35.5932 98.688 35.934 100.031 35.934C100.994 35.934 101.744 35.7156 102.283 35.2812C102.82 34.8468 103.087 34.2636 103.087 33.5364C103.087 32.8884 102.866 32.3424 102.424 31.8996C101.983 31.4568 101.248 31.0452 100.22 30.6648C97.4244 29.622 96.0276 28.0944 96.0276 26.0856C96.0276 24.7728 96.5172 23.6964 97.4976 22.8588C98.4744 22.02 99.7776 21.6012 101.407 21.6012C102.86 21.6012 104.068 21.8544 105.031 22.3596L104.392 24.4452C103.492 23.9556 102.474 23.7108 101.335 23.7108C100.435 23.7108 99.732 23.9328 99.228 24.3744C98.802 24.7692 98.5884 25.2504 98.5884 25.8204C98.5884 26.4516 98.832 26.9736 99.3216 27.384C99.7476 27.7632 100.522 28.1736 101.645 28.6164C103.019 29.1696 104.028 29.8164 104.677 30.558C105.324 31.2972 105.647 32.2224 105.647 33.3264Z" fill="#2B2733"/>
<path d="M114.106 28.2096H111.286V33.8004C111.286 35.2224 111.782 35.9328 112.778 35.9328C113.236 35.9328 113.615 35.8932 113.915 35.814L113.986 37.7568C113.482 37.9452 112.818 38.04 111.996 38.04C110.986 38.04 110.196 37.7316 109.626 37.116C109.058 36.4992 108.773 35.4648 108.773 34.0116V28.2072H107.093V26.2872H108.773V24.1788L111.286 23.4204V26.2872H114.106V28.2096Z" fill="#2B2733"/>
<path d="M126.829 31.9524C126.829 33.7224 126.323 35.1756 125.312 36.312C124.253 37.482 122.846 38.0652 121.093 38.0652C119.404 38.0652 118.058 37.5048 117.055 36.384C116.052 35.2632 115.55 33.8484 115.55 32.1432C115.55 30.3588 116.066 28.8972 117.102 27.7608C118.135 26.6232 119.53 26.0544 121.283 26.0544C122.972 26.0544 124.332 26.6148 125.358 27.7368C126.34 28.8252 126.829 30.2304 126.829 31.9524ZM124.175 32.0352C124.175 30.9732 123.948 30.0624 123.488 29.3028C122.952 28.3836 122.185 27.9252 121.192 27.9252C120.163 27.9252 119.382 28.3848 118.846 29.3028C118.386 30.0636 118.159 30.9888 118.159 32.0832C118.159 33.1452 118.386 34.056 118.846 34.8144C119.399 35.7336 120.172 36.192 121.169 36.192C122.146 36.192 122.912 35.724 123.466 34.7904C123.937 34.0164 124.175 33.096 124.175 32.0352Z" fill="#2B2733"/>
<path d="M135.145 28.5396C134.892 28.4928 134.622 28.4688 134.339 28.4688C133.439 28.4688 132.743 28.8084 132.253 29.4888C131.827 30.0888 131.614 30.8472 131.614 31.7628V37.8048H129.056L129.08 29.916C129.08 28.5888 129.048 27.3804 128.984 26.2908H131.213L131.306 28.494H131.377C131.647 27.7368 132.073 27.1272 132.656 26.67C133.226 26.2584 133.842 26.0532 134.506 26.0532C134.742 26.0532 134.956 26.07 135.145 26.1V28.5396Z" fill="#2B2733"/>
<path d="M146.587 31.5024C146.587 31.9608 146.557 32.3472 146.494 32.6628H138.818C138.848 33.8004 139.219 34.6704 139.932 35.2704C140.579 35.8068 141.415 36.0756 142.442 36.0756C143.579 36.0756 144.616 35.8944 145.548 35.5308L145.949 37.3068C144.859 37.782 143.573 38.0184 142.088 38.0184C140.303 38.0184 138.901 37.4928 137.881 36.4428C136.864 35.3928 136.354 33.9828 136.354 32.214C136.354 30.4776 136.828 29.0316 137.777 27.8784C138.77 26.6472 140.113 26.0316 141.803 26.0316C143.462 26.0316 144.719 26.6472 145.572 27.8784C146.248 28.8564 146.587 30.066 146.587 31.5024ZM144.148 30.8388C144.164 30.0804 143.998 29.4252 143.651 28.872C143.208 28.1604 142.528 27.8052 141.612 27.8052C140.776 27.8052 140.095 28.152 139.576 28.848C139.15 29.4012 138.896 30.0648 138.818 30.8376H144.148V30.8388Z" fill="#2B2733"/>
<path d="M58.86 12.0108C58.86 13.4232 58.4364 14.4864 57.5904 15.2004C56.8068 15.8592 55.6932 16.1892 54.2508 16.1892C53.5356 16.1892 52.9236 16.158 52.4112 16.0956V8.3784C53.0796 8.2704 53.7996 8.2152 54.5772 8.2152C55.9512 8.2152 56.9868 8.514 57.6852 9.1116C58.4676 9.7872 58.86 10.7532 58.86 12.0108ZM57.534 12.0456C57.534 11.13 57.2916 10.428 56.8068 9.9384C56.322 9.45 55.614 9.2052 54.6816 9.2052C54.2856 9.2052 53.9484 9.2316 53.6688 9.2868V15.1536C53.8236 15.1776 54.1068 15.1884 54.5184 15.1884C55.4808 15.1884 56.2236 14.9208 56.7468 14.3856C57.27 13.8504 57.534 13.0704 57.534 12.0456Z" fill="#2B2733"/>
<path d="M65.8908 13.2444C65.8908 14.1144 65.6424 14.8272 65.1456 15.3864C64.6248 15.9612 63.9348 16.248 63.0732 16.248C62.2428 16.248 61.5816 15.9732 61.0884 15.4212C60.5964 14.8704 60.3504 14.1756 60.3504 13.338C60.3504 12.462 60.6036 11.7432 61.1124 11.1852C61.6212 10.6272 62.3052 10.3476 63.1668 10.3476C63.9972 10.3476 64.6644 10.6224 65.1696 11.1732C65.6496 11.7084 65.8908 12.3996 65.8908 13.2444ZM64.5864 13.2852C64.5864 12.7632 64.4736 12.3156 64.2492 11.9424C63.9852 11.4912 63.6096 11.2656 63.1212 11.2656C62.616 11.2656 62.232 11.4912 61.968 11.9424C61.7424 12.3156 61.6308 12.7704 61.6308 13.308C61.6308 13.83 61.7436 14.2776 61.968 14.6508C62.2404 15.102 62.6196 15.3276 63.1092 15.3276C63.5892 15.3276 63.966 15.0984 64.2372 14.6388C64.47 14.2584 64.5864 13.8072 64.5864 13.2852Z" fill="#2B2733"/>
<path d="M75.318 10.4628L73.548 16.1196H72.396L71.6628 13.6632C71.4768 13.05 71.3256 12.4404 71.208 11.8356H71.1852C71.076 12.4572 70.9248 13.0656 70.7304 13.6632L69.9516 16.1196H68.7864L67.122 10.4628H68.4144L69.054 13.152C69.2088 13.788 69.336 14.394 69.438 14.9676H69.4608C69.5544 14.4948 69.7092 13.8924 69.9276 13.164L70.7304 10.464H71.7552L72.5244 13.1064C72.7104 13.7508 72.8616 14.3712 72.978 14.9688H73.0128C73.098 14.3868 73.2264 13.7664 73.3968 13.1064L74.0832 10.464H75.318V10.4628Z" fill="#2B2733"/>
<path d="M81.8376 16.1196H80.58V12.8796C80.58 11.8812 80.2008 11.382 79.44 11.382C79.0668 11.382 78.7656 11.5188 78.5316 11.7936C78.3 12.0684 78.1824 12.3924 78.1824 12.7632V16.1184H76.9248V12.0792C76.9248 11.5824 76.9092 11.0436 76.8792 10.4604H77.9844L78.0432 11.3448H78.078C78.2244 11.07 78.4428 10.8432 78.7296 10.662C79.0704 10.4508 79.452 10.344 79.8696 10.344C80.3976 10.344 80.8368 10.5144 81.186 10.8564C81.6204 11.2752 81.8376 11.9004 81.8376 12.7308V16.1196V16.1196Z" fill="#2B2733"/>
<path d="M85.3056 16.1196H84.0492V7.86721H85.3056V16.1196Z" fill="#2B2733"/>
<path d="M92.7096 13.2444C92.7096 14.1144 92.4612 14.8272 91.9644 15.3864C91.4436 15.9612 90.7524 16.248 89.892 16.248C89.0604 16.248 88.3992 15.9732 87.9072 15.4212C87.4152 14.8704 87.1692 14.1756 87.1692 13.338C87.1692 12.462 87.4224 11.7432 87.9312 11.1852C88.44 10.6272 89.124 10.3476 89.9844 10.3476C90.816 10.3476 91.482 10.6224 91.9884 11.1732C92.4684 11.7084 92.7096 12.3996 92.7096 13.2444ZM91.404 13.2852C91.404 12.7632 91.2912 12.3156 91.0668 11.9424C90.804 11.4912 90.4272 11.2656 89.94 11.2656C89.4336 11.2656 89.0496 11.4912 88.7868 11.9424C88.5612 12.3156 88.4496 12.7704 88.4496 13.308C88.4496 13.83 88.5624 14.2776 88.7868 14.6508C89.0592 15.102 89.4384 15.3276 89.928 15.3276C90.408 15.3276 90.7836 15.0984 91.0548 14.6388C91.2888 14.2584 91.404 13.8072 91.404 13.2852Z" fill="#2B2733"/>
<path d="M98.796 16.1196H97.6668L97.5732 15.468H97.5384C97.152 15.9876 96.6012 16.248 95.886 16.248C95.352 16.248 94.92 16.0764 94.5948 15.7356C94.2996 15.426 94.152 15.0408 94.152 14.5836C94.152 13.8924 94.44 13.3656 95.0196 13.0008C95.598 12.636 96.4116 12.4572 97.4592 12.4656V12.36C97.4592 11.6148 97.068 11.2428 96.2844 11.2428C95.7264 11.2428 95.2344 11.3832 94.8096 11.6616L94.554 10.836C95.0796 10.5108 95.7288 10.3476 96.4944 10.3476C97.9728 10.3476 98.7144 11.1276 98.7144 12.6876V14.7708C98.7144 15.336 98.742 15.786 98.796 16.1196ZM97.4904 14.1756V13.3032C96.1032 13.2792 95.4096 13.6596 95.4096 14.4432C95.4096 14.7384 95.4888 14.9592 95.6508 15.1068C95.8128 15.2544 96.0192 15.3276 96.2652 15.3276C96.5412 15.3276 96.7992 15.24 97.0344 15.066C97.2708 14.8908 97.416 14.6688 97.47 14.3964C97.4832 14.3352 97.4904 14.2608 97.4904 14.1756Z" fill="#2B2733"/>
<path d="M105.942 16.1196H104.826L104.767 15.2112H104.732C104.376 15.9024 103.769 16.248 102.916 16.248C102.234 16.248 101.666 15.9804 101.216 15.4452C100.766 14.91 100.542 14.2152 100.542 13.362C100.542 12.4464 100.786 11.7048 101.275 11.1384C101.749 10.6104 102.33 10.3464 103.021 10.3464C103.781 10.3464 104.312 10.602 104.615 11.1144H104.639V7.86721H105.898V14.5956C105.898 15.1464 105.912 15.654 105.942 16.1196ZM104.639 13.734V12.7908C104.639 12.6276 104.627 12.4956 104.604 12.3948C104.533 12.0924 104.381 11.838 104.149 11.6328C103.915 11.4276 103.633 11.3244 103.308 11.3244C102.839 11.3244 102.472 11.5104 102.202 11.8836C101.934 12.2568 101.798 12.7332 101.798 13.3152C101.798 13.8744 101.927 14.328 102.185 14.6772C102.457 15.0492 102.824 15.2352 103.284 15.2352C103.697 15.2352 104.027 15.0804 104.278 14.7696C104.52 14.4828 104.639 14.1372 104.639 13.734Z" fill="#2B2733"/>
<path d="M116.698 13.2444C116.698 14.1144 116.449 14.8272 115.952 15.3864C115.432 15.9612 114.743 16.248 113.88 16.248C113.051 16.248 112.39 15.9732 111.895 15.4212C111.403 14.8704 111.157 14.1756 111.157 13.338C111.157 12.462 111.41 11.7432 111.919 11.1852C112.428 10.6272 113.112 10.3476 113.975 10.3476C114.804 10.3476 115.472 10.6224 115.976 11.1732C116.456 11.7084 116.698 12.3996 116.698 13.2444ZM115.394 13.2852C115.394 12.7632 115.282 12.3156 115.057 11.9424C114.792 11.4912 114.418 11.2656 113.928 11.2656C113.424 11.2656 113.04 11.4912 112.775 11.9424C112.549 12.3156 112.438 12.7704 112.438 13.308C112.438 13.83 112.55 14.2776 112.775 14.6508C113.047 15.102 113.426 15.3276 113.916 15.3276C114.396 15.3276 114.774 15.0984 115.045 14.6388C115.277 14.2584 115.394 13.8072 115.394 13.2852Z" fill="#2B2733"/>
<path d="M123.46 16.1196H122.203V12.8796C122.203 11.8812 121.824 11.382 121.062 11.382C120.689 11.382 120.388 11.5188 120.155 11.7936C119.922 12.0684 119.806 12.3924 119.806 12.7632V16.1184H118.547V12.0792C118.547 11.5824 118.532 11.0436 118.502 10.4604H119.606L119.665 11.3448H119.7C119.848 11.07 120.066 10.8432 120.352 10.662C120.694 10.4508 121.074 10.344 121.493 10.344C122.02 10.344 122.459 10.5144 122.808 10.8564C123.244 11.2752 123.46 11.9004 123.46 12.7308V16.1196V16.1196Z" fill="#2B2733"/>
<path d="M131.923 11.4048H130.538V14.1528C130.538 14.8512 130.784 15.2004 131.272 15.2004C131.497 15.2004 131.684 15.1812 131.832 15.1416L131.864 16.0956C131.616 16.1892 131.29 16.236 130.888 16.236C130.391 16.236 130.004 16.0848 129.725 15.7824C129.444 15.48 129.305 14.9712 129.305 14.2572V11.4048H128.478V10.4628H129.305V9.42601L130.537 9.05401V10.4616H131.922V11.4048H131.923Z" fill="#2B2733"/>
<path d="M138.581 16.1196H137.322V12.9036C137.322 11.8896 136.943 11.382 136.183 11.382C135.6 11.382 135.202 11.676 134.983 12.264C134.946 12.3876 134.924 12.5388 134.924 12.7164V16.1184H133.668V7.86721H134.924V11.2764H134.948C135.344 10.656 135.912 10.3464 136.648 10.3464C137.168 10.3464 137.599 10.5168 137.941 10.8588C138.367 11.2848 138.581 11.9184 138.581 12.756V16.1196V16.1196Z" fill="#2B2733"/>
<path d="M145.448 13.0236C145.448 13.2492 145.432 13.4388 145.402 13.5936H141.63C141.647 14.1528 141.827 14.5788 142.176 14.874C142.495 15.138 142.907 15.27 143.411 15.27C143.969 15.27 144.478 15.1812 144.936 15.0024L145.133 15.876C144.596 16.1088 143.965 16.2252 143.234 16.2252C142.358 16.2252 141.668 15.9672 141.169 15.4512C140.668 14.9352 140.419 14.2428 140.419 13.374C140.419 12.5208 140.651 11.8104 141.118 11.244C141.605 10.6392 142.264 10.3368 143.095 10.3368C143.909 10.3368 144.527 10.6392 144.944 11.244C145.282 11.724 145.448 12.318 145.448 13.0236ZM144.248 12.6984C144.258 12.3252 144.175 12.0036 144.005 11.7324C143.786 11.3832 143.454 11.208 143.004 11.208C142.594 11.208 142.259 11.3784 142.003 11.7204C141.794 11.9928 141.671 12.318 141.63 12.6984H144.248Z" fill="#2B2733"/>
</svg>
